<svg width="100%" height="100%" viewBox="0 0 132 89" fill="none"
  xmlns="http://www.w3.org/2000/svg">
  <path stroke-linejoin="miter"
    fill="var(--color-secondary)"
    d="M66.2031 0.0107422C74.3782 0.0107422 81.653 3.8621 86.3145 9.84863C90.9759 3.86201 98.2517 0.0117307 106.427 0.0117188C120.496 0.0117188 131.902 11.4168 131.902 25.4863V62.5361C131.902 76.6057 120.496 88.0117 106.427 88.0117C98.2513 88.0117 90.9759 84.1599 86.3145 78.1729C81.653 84.1594 74.3782 88.0107 66.2031 88.0107C58.0276 88.0107 50.7522 84.159 46.0908 78.1719C41.4295 84.1589 34.1548 88.0106 25.9795 88.0107C11.91 88.0107 0.504049 76.6056 0.503906 62.5361L0.503906 25.4863C0.503906 11.4168 11.91 0.0107422 25.9795 0.0107422C34.1544 0.0108787 41.4295 3.86217 46.0908 9.84863C50.7522 3.86181 58.0279 0.0107566 66.2031 0.0107422Z"></path>
</svg>