<svg overflow="visible" width="100%" height="100%" viewBox="0 0 501 291" fill="none"
  xmlns="http://www.w3.org/2000/svg">
  <path stroke-linejoin="miter" fill="currentColor"
    d="M250.5 0L265.626 28.2647L287.835 1.62512L295.539 30.8836L324.336 6.46416L324.446 36.0628L359.188 14.409L351.702 43.6866L391.612 25.2823L376.697 53.5848L420.883 38.841L398.873 65.5362L446.349 54.7822L417.734 79.2738L467.439 72.75L432.86 94.4909L483.684 92.3429L443.912 110.847L494.719 113.123L450.643 127.978L500.3 134.627L452.904 145.5L500.3 156.373L450.643 163.022L494.719 177.877L443.912 180.153L483.684 198.657L432.86 196.509L467.439 218.25L417.734 211.726L446.349 236.218L398.873 225.464L420.883 252.159L376.697 237.415L391.612 265.718L351.702 247.313L359.188 276.591L324.446 254.937L324.336 284.536L295.539 260.116L287.835 289.375L265.626 262.735L250.5 291L235.374 262.735L213.165 289.375L205.461 260.116L176.664 284.536L176.554 254.937L141.812 276.591L149.298 247.313L109.388 265.718L124.303 237.415L80.1167 252.159L102.127 225.464L54.6512 236.218L83.266 211.726L33.5606 218.25L68.1403 196.509L17.3161 198.657L57.0882 180.153L6.28056 177.877L50.3567 163.022L0.700455 156.373L48.096 145.5L0.700455 134.627L50.3567 127.978L6.28056 113.123L57.0882 110.847L17.3161 92.3429L68.1403 94.4909L33.5606 72.75L83.266 79.2738L54.6512 54.7822L102.127 65.5362L80.1167 38.841L124.303 53.5848L109.388 25.2823L149.298 43.6866L141.812 14.409L176.554 36.0628L176.664 6.46416L205.461 30.8836L213.165 1.62512L235.374 28.2647L250.5 0Z"></path>
</svg>