<svg width="100%" height="100%" viewBox="0 0 164 160" fill="none"
  xmlns="http://www.w3.org/2000/svg">
  <path stroke-linejoin="miter" fill="var(--color-primary)" fill-rule="evenodd" clip-rule="evenodd"
    d="M75.1197 125.055C75.8252 123.833 76.4983 122.607 77.139 121.379C77.7797 122.607 78.4528 123.833 79.1582 125.055C94.0699 150.883 117.79 165.105 132.139 156.82C146.488 148.536 146.031 120.883 131.12 95.0549C130.961 94.7806 130.802 94.5076 130.642 94.2359C155.377 79.2814 168.787 56.298 160.688 42.2708C153.656 30.0903 132.666 28.5785 110.683 37.5215C106.764 15.9073 95.4743 0.290039 82.1578 0.290039C68.9957 0.290039 57.8134 15.5473 53.7716 36.7722C31.5689 27.5519 10.2552 28.9782 3.15782 41.2712C-4.22275 54.0547 6.26038 74.2766 26.8993 89.0811C25.602 90.9943 24.3519 92.9874 23.1582 95.0549C8.24651 120.883 7.79019 148.536 22.139 156.82C36.4877 165.105 60.208 150.883 75.1197 125.055Z"></path>
</svg>