<svg width="100%" height="100%" viewBox="0 0 360 360" fill="none"
  xmlns="http://www.w3.org/2000/svg">
  <path stroke-linejoin="miter"
    fill="var(--color-tertiary)"
    d="M180 0L191.292 65.3547L215.116 3.45865L213.441 69.7605L248.883 13.7017L234.305 78.4027L280.003 30.3355L253.082 90.9492L307.279 52.7208L269.051 106.918L329.665 79.9974L281.597 125.695L346.298 111.117L290.24 146.559L356.541 144.884L294.645 168.708L360 180L294.645 191.292L356.541 215.116L290.24 213.441L346.298 248.883L281.597 234.305L329.665 280.003L269.051 253.082L307.279 307.279L253.082 269.051L280.003 329.665L234.305 281.597L248.883 346.298L213.441 290.24L215.116 356.541L191.292 294.645L180 360L168.708 294.645L144.884 356.541L146.559 290.24L111.117 346.298L125.695 281.597L79.9974 329.665L106.918 269.051L52.7208 307.279L90.9492 253.082L30.3355 280.003L78.4027 234.305L13.7017 248.883L69.7605 213.441L3.45865 215.116L65.3547 191.292L0 180L65.3547 168.708L3.45865 144.884L69.7605 146.559L13.7017 111.117L78.4027 125.695L30.3355 79.9974L90.9492 106.918L52.7208 52.7208L106.918 90.9492L79.9974 30.3355L125.695 78.4027L111.117 13.7017L146.559 69.7605L144.884 3.45865L168.708 65.3547L180 0Z"></path>
</svg>